<svg xmlns="http://www.w3.org/2000/svg" xmlns:xlink="http://www.w3.org/1999/xlink" version="1.1" width="256" height="256" viewBox="0 0 256 256" xml:space="preserve">

<defs>
</defs>
<g style="stroke: none; stroke-width: 0; stroke-dasharray: none; stroke-linecap: butt; stroke-linejoin: miter; stroke-miterlimit: 10; fill: none; fill-rule: nonzero; opacity: 1;" transform="translate(1.4065934065934016 1.4065934065934016) scale(2.81 2.81)" >
	<path d="M 40.279 16.905 c 17.575 0 31.823 14.248 31.823 31.823 c 0 17.575 -14.248 31.823 -31.823 31.823 c -17.575 0 -31.823 -14.248 -31.823 -31.823 h 31.823 V 16.905 z" style="stroke: none; stroke-width: 1; stroke-dasharray: none; stroke-linecap: butt; stroke-linejoin: miter; stroke-miterlimit: 10; fill: rgb(110,110,110); fill-rule: nonzero; opacity: 1;" transform=" matrix(1 0 0 1 0 0) " stroke-linecap="round" />
	<path d="M 40.279 81.551 c -18.099 0 -32.823 -14.724 -32.823 -32.822 c 0 -0.553 0.448 -1 1 -1 h 30.823 V 16.905 c 0 -0.552 0.448 -1 1 -1 c 18.099 0 32.823 14.725 32.823 32.823 S 58.378 81.551 40.279 81.551 z M 9.473 49.729 c 0.53 16.534 14.146 29.822 30.807 29.822 c 16.996 0 30.823 -13.827 30.823 -30.822 c 0 -16.661 -13.289 -30.277 -29.823 -30.807 v 30.807 c 0 0.553 -0.448 1 -1 1 H 9.473 z" style="stroke: none; stroke-width: 1; stroke-dasharray: none; stroke-linecap: butt; stroke-linejoin: miter; stroke-miterlimit: 10; fill: rgb(0,0,0); fill-rule: nonzero; opacity: 1;" transform=" matrix(1 0 0 1 0 0) " stroke-linecap="round" />
	<path d="M 32.823 9.449 v 31.823 H 1 C 1 23.696 15.248 9.449 32.823 9.449 z" style="stroke: none; stroke-width: 1; stroke-dasharray: none; stroke-linecap: butt; stroke-linejoin: miter; stroke-miterlimit: 10; fill: rgb(255,197,13); fill-rule: nonzero; opacity: 1;" transform=" matrix(1 0 0 1 0 0) " stroke-linecap="round" />
	<path d="M 32.823 42.272 H 1 c -0.552 0 -1 -0.448 -1 -1 C 0 23.173 14.725 8.449 32.823 8.449 c 0.552 0 1 0.448 1 1 v 31.823 C 33.823 41.824 33.375 42.272 32.823 42.272 z M 2.016 40.272 h 29.807 V 10.465 C 15.622 10.984 2.536 24.07 2.016 40.272 z" style="stroke: none; stroke-width: 1; stroke-dasharray: none; stroke-linecap: butt; stroke-linejoin: miter; stroke-miterlimit: 10; fill: rgb(0,0,0); fill-rule: nonzero; opacity: 1;" transform=" matrix(1 0 0 1 0 0) " stroke-linecap="round" />
	<path d="M 87.715 73.124 H 59.091 c -0.71 0 -1.285 0.993 -1.285 2.218 v 2.868 l 0 0 c 0 1.267 0.595 2.294 1.33 2.294 H 87.67 c 0.734 0 1.33 -1.027 1.33 -2.294 l 0 0 v -2.868 C 89 74.117 88.424 73.124 87.715 73.124 z" style="stroke: none; stroke-width: 1; stroke-dasharray: none; stroke-linecap: butt; stroke-linejoin: miter; stroke-miterlimit: 10; fill: rgb(255,197,13); fill-rule: nonzero; opacity: 1;" transform=" matrix(1 0 0 1 0 0) " stroke-linecap="round" />
	<path d="M 87.715 65.745 H 59.091 c -0.71 0 -1.285 0.993 -1.285 2.218 v 2.868 c 0 1.267 0.595 2.294 1.33 2.294 H 87.67 c 0.734 0 1.33 -1.027 1.33 -2.294 v -2.868 C 89 66.738 88.424 65.745 87.715 65.745 z" style="stroke: none; stroke-width: 1; stroke-dasharray: none; stroke-linecap: butt; stroke-linejoin: miter; stroke-miterlimit: 10; fill: rgb(255,139,0); fill-rule: nonzero; opacity: 1;" transform=" matrix(1 0 0 1 0 0) " stroke-linecap="round" />
	<path d="M 87.715 58.366 H 59.091 c -0.71 0 -1.285 0.993 -1.285 2.218 v 2.868 c 0 1.267 0.595 2.294 1.33 2.294 H 87.67 c 0.734 0 1.33 -1.027 1.33 -2.294 v -2.868 C 89 59.359 88.424 58.366 87.715 58.366 z" style="stroke: none; stroke-width: 1; stroke-dasharray: none; stroke-linecap: butt; stroke-linejoin: miter; stroke-miterlimit: 10; fill: rgb(255,197,13); fill-rule: nonzero; opacity: 1;" transform=" matrix(1 0 0 1 0 0) " stroke-linecap="round" />
	<path d="M 87.715 50.987 H 59.091 c -0.71 0 -1.285 0.993 -1.285 2.218 v 2.868 c 0 1.267 0.595 2.294 1.33 2.294 H 87.67 c 0.734 0 1.33 -1.027 1.33 -2.294 v -2.868 C 89 51.979 88.424 50.987 87.715 50.987 z" style="stroke: none; stroke-width: 1; stroke-dasharray: none; stroke-linecap: butt; stroke-linejoin: miter; stroke-miterlimit: 10; fill: rgb(255,139,0); fill-rule: nonzero; opacity: 1;" transform=" matrix(1 0 0 1 0 0) " stroke-linecap="round" />
	<path d="M 87.715 43.607 H 59.091 c -0.71 0 -1.285 0.993 -1.285 2.218 v 2.868 c 0 1.267 0.595 2.294 1.33 2.294 H 87.67 c 0.734 0 1.33 -1.027 1.33 -2.294 v -2.868 C 89 44.6 88.424 43.607 87.715 43.607 z" style="stroke: none; stroke-width: 1; stroke-dasharray: none; stroke-linecap: butt; stroke-linejoin: miter; stroke-miterlimit: 10; fill: rgb(255,197,13); fill-rule: nonzero; opacity: 1;" transform=" matrix(1 0 0 1 0 0) " stroke-linecap="round" />
	<path d="M 87.715 36.228 H 59.091 c -0.71 0 -1.285 0.993 -1.285 2.218 v 2.868 l 0 0 c 0 1.267 0.595 2.294 1.33 2.294 H 87.67 c 0.734 0 1.33 -1.027 1.33 -2.294 l 0 0 v -2.868 C 89 37.221 88.424 36.228 87.715 36.228 z" style="stroke: none; stroke-width: 1; stroke-dasharray: none; stroke-linecap: butt; stroke-linejoin: miter; stroke-miterlimit: 10; fill: rgb(255,139,0); fill-rule: nonzero; opacity: 1;" transform=" matrix(1 0 0 1 0 0) " stroke-linecap="round" />
	<path d="M 87.715 28.849 H 59.091 c -0.71 0 -1.285 0.993 -1.285 2.218 v 2.868 c 0 1.267 0.595 2.294 1.33 2.294 H 87.67 c 0.734 0 1.33 -1.027 1.33 -2.294 v -2.868 C 89 29.842 88.424 28.849 87.715 28.849 z" style="stroke: none; stroke-width: 1; stroke-dasharray: none; stroke-linecap: butt; stroke-linejoin: miter; stroke-miterlimit: 10; fill: rgb(255,197,13); fill-rule: nonzero; opacity: 1;" transform=" matrix(1 0 0 1 0 0) " stroke-linecap="round" />
	<path d="M 87.67 81.503 H 59.135 c -1.328 0 -2.329 -1.416 -2.329 -3.294 v -2.867 c 0 -1.834 0.982 -3.218 2.285 -3.218 h 28.624 c 1.303 0 2.285 1.384 2.285 3.218 v 2.867 C 90 80.087 88.998 81.503 87.67 81.503 z M 59.091 74.124 c -0.005 0.039 -0.285 0.46 -0.285 1.218 v 2.867 c 0 0.767 0.287 1.241 0.407 1.31 l 28.457 -0.016 C 87.713 79.45 88 78.976 88 78.209 v -2.867 c 0 -0.7 -0.239 -1.111 -0.353 -1.218 H 59.091 z M 87.715 74.124 h 0.01 H 87.715 z" style="stroke: none; stroke-width: 1; stroke-dasharray: none; stroke-linecap: butt; stroke-linejoin: miter; stroke-miterlimit: 10; fill: rgb(0,0,0); fill-rule: nonzero; opacity: 1;" transform=" matrix(1 0 0 1 0 0) " stroke-linecap="round" />
	<path d="M 87.67 74.124 H 59.135 c -1.328 0 -2.329 -1.416 -2.329 -3.294 v -2.867 c 0 -1.834 0.982 -3.218 2.285 -3.218 h 28.624 c 1.303 0 2.285 1.384 2.285 3.218 v 2.867 C 90 72.708 88.998 74.124 87.67 74.124 z M 59.091 66.745 c -0.005 0.039 -0.285 0.46 -0.285 1.218 v 2.867 c 0 0.767 0.287 1.241 0.407 1.31 l 28.457 -0.016 C 87.712 72.071 88 71.597 88 70.83 v -2.867 c 0 -0.7 -0.239 -1.111 -0.353 -1.218 H 59.091 z M 87.715 66.745 h 0.01 H 87.715 z" style="stroke: none; stroke-width: 1; stroke-dasharray: none; stroke-linecap: butt; stroke-linejoin: miter; stroke-miterlimit: 10; fill: rgb(0,0,0); fill-rule: nonzero; opacity: 1;" transform=" matrix(1 0 0 1 0 0) " stroke-linecap="round" />
	<path d="M 87.67 66.745 H 59.135 c -1.328 0 -2.329 -1.416 -2.329 -3.294 v -2.868 c 0 -1.834 0.982 -3.217 2.285 -3.217 h 28.624 c 1.303 0 2.285 1.383 2.285 3.217 v 2.868 C 90 65.329 88.998 66.745 87.67 66.745 z M 59.091 59.366 c -0.005 0.039 -0.285 0.459 -0.285 1.217 v 2.868 c 0 0.767 0.287 1.241 0.407 1.31 l 28.457 -0.016 c 0.042 -0.053 0.33 -0.527 0.33 -1.294 v -2.868 c 0 -0.699 -0.239 -1.111 -0.352 -1.217 H 59.091 z M 87.715 59.366 h 0.01 H 87.715 z" style="stroke: none; stroke-width: 1; stroke-dasharray: none; stroke-linecap: butt; stroke-linejoin: miter; stroke-miterlimit: 10; fill: rgb(0,0,0); fill-rule: nonzero; opacity: 1;" transform=" matrix(1 0 0 1 0 0) " stroke-linecap="round" />
	<path d="M 87.67 59.366 H 59.135 c -1.328 0 -2.329 -1.417 -2.329 -3.295 v -2.867 c 0 -1.834 0.982 -3.218 2.285 -3.218 h 28.624 c 1.303 0 2.285 1.384 2.285 3.218 v 2.867 C 90 57.949 88.998 59.366 87.67 59.366 z M 59.091 51.986 c -0.005 0.039 -0.285 0.46 -0.285 1.218 v 2.867 c 0 0.768 0.287 1.242 0.407 1.311 l 28.457 -0.016 c 0.042 -0.053 0.33 -0.527 0.33 -1.295 v -2.867 c 0 -0.7 -0.239 -1.111 -0.353 -1.218 H 59.091 z M 87.715 51.986 h 0.01 H 87.715 z" style="stroke: none; stroke-width: 1; stroke-dasharray: none; stroke-linecap: butt; stroke-linejoin: miter; stroke-miterlimit: 10; fill: rgb(0,0,0); fill-rule: nonzero; opacity: 1;" transform=" matrix(1 0 0 1 0 0) " stroke-linecap="round" />
	<path d="M 87.67 51.986 H 59.135 c -1.328 0 -2.329 -1.416 -2.329 -3.294 v -2.867 c 0 -1.834 0.982 -3.218 2.285 -3.218 h 28.624 c 1.303 0 2.285 1.383 2.285 3.218 v 2.867 C 90 50.57 88.998 51.986 87.67 51.986 z M 59.091 44.607 c -0.005 0.04 -0.285 0.46 -0.285 1.218 v 2.867 c 0 0.767 0.287 1.241 0.407 1.31 l 28.457 -0.016 c 0.043 -0.053 0.33 -0.527 0.33 -1.294 v -2.867 c 0 -0.7 -0.239 -1.112 -0.352 -1.218 H 59.091 z M 87.715 44.607 h 0.01 H 87.715 z" style="stroke: none; stroke-width: 1; stroke-dasharray: none; stroke-linecap: butt; stroke-linejoin: miter; stroke-miterlimit: 10; fill: rgb(0,0,0); fill-rule: nonzero; opacity: 1;" transform=" matrix(1 0 0 1 0 0) " stroke-linecap="round" />
	<path d="M 87.67 44.607 H 59.135 c -1.328 0 -2.329 -1.416 -2.329 -3.294 v -2.868 c 0 -1.834 0.982 -3.218 2.285 -3.218 h 28.624 c 1.303 0 2.285 1.383 2.285 3.218 v 2.868 C 90 43.191 88.998 44.607 87.67 44.607 z M 59.091 37.228 c -0.005 0.04 -0.285 0.46 -0.285 1.218 v 2.868 c 0 0.767 0.287 1.241 0.407 1.31 l 28.457 -0.016 c 0.042 -0.053 0.33 -0.527 0.33 -1.294 v -2.868 c 0 -0.7 -0.239 -1.112 -0.353 -1.218 H 59.091 z M 87.715 37.228 h 0.01 H 87.715 z" style="stroke: none; stroke-width: 1; stroke-dasharray: none; stroke-linecap: butt; stroke-linejoin: miter; stroke-miterlimit: 10; fill: rgb(0,0,0); fill-rule: nonzero; opacity: 1;" transform=" matrix(1 0 0 1 0 0) " stroke-linecap="round" />
	<path d="M 87.67 37.228 H 59.135 c -1.328 0 -2.329 -1.416 -2.329 -3.294 v -2.868 c 0 -1.834 0.982 -3.217 2.285 -3.217 h 28.624 c 1.303 0 2.285 1.383 2.285 3.217 v 2.868 C 90 35.812 88.998 37.228 87.67 37.228 z M 59.091 29.849 c -0.005 0.04 -0.285 0.459 -0.285 1.217 v 2.868 c 0 0.767 0.287 1.241 0.407 1.31 l 28.457 -0.016 c 0.042 -0.053 0.33 -0.527 0.33 -1.294 v -2.868 c 0 -0.7 -0.239 -1.111 -0.352 -1.217 H 59.091 z M 87.715 29.849 h 0.01 H 87.715 z" style="stroke: none; stroke-width: 1; stroke-dasharray: none; stroke-linecap: butt; stroke-linejoin: miter; stroke-miterlimit: 10; fill: rgb(0,0,0); fill-rule: nonzero; opacity: 1;" transform=" matrix(1 0 0 1 0 0) " stroke-linecap="round" />
	<circle cx="58.842" cy="63.852000000000004" r="16.702" style="stroke: none; stroke-width: 1; stroke-dasharray: none; stroke-linecap: butt; stroke-linejoin: miter; stroke-miterlimit: 10; fill: rgb(255,163,0); fill-rule: nonzero; opacity: 1;" transform="  matrix(1 0 0 1 0 0) "/>
	<circle cx="58.838" cy="63.848" r="11.118" style="stroke: none; stroke-width: 1; stroke-dasharray: none; stroke-linecap: butt; stroke-linejoin: miter; stroke-miterlimit: 10; fill: rgb(255,197,13); fill-rule: nonzero; opacity: 1;" transform="  matrix(1 0 0 1 0 0) "/>
	<path d="M 58.747 70.551 c -0.532 0 -1.063 -0.114 -1.562 -0.341 c -0.919 -0.418 -1.621 -1.169 -1.976 -2.115 c -0.193 -0.517 0.068 -1.093 0.586 -1.287 c 0.514 -0.192 1.094 0.067 1.287 0.586 c 0.167 0.445 0.497 0.799 0.93 0.996 c 0.435 0.196 0.918 0.213 1.362 0.045 c 0.445 -0.167 0.8 -0.497 0.996 -0.93 c 0.197 -0.434 0.214 -0.917 0.046 -1.362 c -0.197 -0.527 -0.621 -0.92 -1.165 -1.079 l -1.451 -0.53 c -1.092 -0.318 -1.994 -1.156 -2.413 -2.276 c -0.354 -0.945 -0.32 -1.973 0.098 -2.892 s 1.169 -1.621 2.114 -1.976 c 1.954 -0.73 4.136 0.26 4.868 2.212 c 0.193 0.518 -0.068 1.094 -0.585 1.288 c -0.517 0.192 -1.094 -0.067 -1.288 -0.585 c -0.345 -0.92 -1.373 -1.386 -2.293 -1.042 c -0.444 0.167 -0.799 0.497 -0.995 0.93 c -0.197 0.434 -0.214 0.917 -0.046 1.362 c 0.197 0.527 0.622 0.921 1.166 1.081 l 1.45 0.528 c 1.091 0.318 1.993 1.155 2.413 2.276 c 0.354 0.945 0.32 1.973 -0.098 2.892 s -1.169 1.621 -2.114 1.976 C 59.646 70.47 59.195 70.551 58.747 70.551 z" style="stroke: none; stroke-width: 1; stroke-dasharray: none; stroke-linecap: butt; stroke-linejoin: miter; stroke-miterlimit: 10; fill: rgb(0,0,0); fill-rule: nonzero; opacity: 1;" transform=" matrix(1 0 0 1 0 0) " stroke-linecap="round" />
	<path d="M 58.839 59.152 c -0.553 0 -1 -0.447 -1 -1 v -1.555 c 0 -0.553 0.447 -1 1 -1 s 1 0.447 1 1 v 1.555 C 59.839 58.705 59.392 59.152 58.839 59.152 z" style="stroke: none; stroke-width: 1; stroke-dasharray: none; stroke-linecap: butt; stroke-linejoin: miter; stroke-miterlimit: 10; fill: rgb(0,0,0); fill-rule: nonzero; opacity: 1;" transform=" matrix(1 0 0 1 0 0) " stroke-linecap="round" />
	<path d="M 58.839 72.1 c -0.553 0 -1 -0.447 -1 -1 v -1.555 c 0 -0.553 0.447 -1 1 -1 s 1 0.447 1 1 V 71.1 C 59.839 71.652 59.392 72.1 58.839 72.1 z" style="stroke: none; stroke-width: 1; stroke-dasharray: none; stroke-linecap: butt; stroke-linejoin: miter; stroke-miterlimit: 10; fill: rgb(0,0,0); fill-rule: nonzero; opacity: 1;" transform=" matrix(1 0 0 1 0 0) " stroke-linecap="round" />
	<path d="M 58.839 81.551 c -9.762 0 -17.703 -7.941 -17.703 -17.702 s 7.941 -17.702 17.703 -17.702 c 9.761 0 17.702 7.941 17.702 17.702 S 68.6 81.551 58.839 81.551 z M 58.839 48.146 c -8.658 0 -15.703 7.044 -15.703 15.702 s 7.044 15.702 15.703 15.702 s 15.702 -7.044 15.702 -15.702 S 67.497 48.146 58.839 48.146 z" style="stroke: none; stroke-width: 1; stroke-dasharray: none; stroke-linecap: butt; stroke-linejoin: miter; stroke-miterlimit: 10; fill: rgb(0,0,0); fill-rule: nonzero; opacity: 1;" transform=" matrix(1 0 0 1 0 0) " stroke-linecap="round" />
	<path d="M 48.586 60.556 c -0.129 0 -0.26 -0.024 -0.386 -0.077 c -0.51 -0.213 -0.75 -0.799 -0.537 -1.309 c 0.612 -1.464 1.489 -2.772 2.607 -3.89 c 1.117 -1.118 2.426 -1.995 3.89 -2.607 c 0.509 -0.212 1.096 0.026 1.309 0.537 c 0.213 0.51 -0.027 1.096 -0.537 1.309 c -1.223 0.511 -2.314 1.242 -3.247 2.176 c -0.934 0.933 -1.665 2.024 -2.176 3.247 C 49.349 60.325 48.977 60.556 48.586 60.556 z" style="stroke: none; stroke-width: 1; stroke-dasharray: none; stroke-linecap: butt; stroke-linejoin: miter; stroke-miterlimit: 10; fill: rgb(0,0,0); fill-rule: nonzero; opacity: 1;" transform=" matrix(1 0 0 1 0 0) " stroke-linecap="round" />
</g>
</svg>